<svg width="336" height="118" viewBox="0 0 336 118" fill="none" xmlns="http://www.w3.org/2000/svg">
<rect x="136" width="200" height="118" rx="25" fill="#119DA4"/>
<path d="M191.089 95V27.224H206.161V95H191.089ZM249.262 95V28.184H264.334V95H249.262ZM228.046 40.376V27.224H285.55V40.376H228.046Z" fill="#EFF1F3"/>
<path d="M20.16 89V34.6H29.36V89H20.16ZM1.92 41.4V33H47.6V41.4H1.92ZM62.0894 89.8C58.356 89.8 54.9694 88.92 51.9294 87.16C48.8894 85.3467 46.4627 82.92 44.6494 79.88C42.8894 76.84 42.0094 73.4533 42.0094 69.72C42.0094 65.9867 42.8894 62.6267 44.6494 59.64C46.4627 56.6533 48.8894 54.28 51.9294 52.52C54.9694 50.7067 58.356 49.8 62.0894 49.8C65.876 49.8 69.2894 50.68 72.3294 52.44C75.3694 54.2 77.7694 56.6 79.5294 59.64C81.3427 62.6267 82.2494 65.9867 82.2494 69.72C82.2494 73.4533 81.3427 76.84 79.5294 79.88C77.7694 82.92 75.3694 85.3467 72.3294 87.16C69.2894 88.92 65.876 89.8 62.0894 89.8ZM62.0894 81.32C64.276 81.32 66.196 80.84 67.8494 79.88C69.556 78.8667 70.8627 77.48 71.7694 75.72C72.7294 73.96 73.2094 71.96 73.2094 69.72C73.2094 67.48 72.7294 65.5067 71.7694 63.8C70.8094 62.0933 69.5027 60.76 67.8494 59.8C66.196 58.7867 64.276 58.28 62.0894 58.28C59.956 58.28 58.036 58.7867 56.3294 59.8C54.676 60.76 53.3694 62.0933 52.4094 63.8C51.5027 65.5067 51.0494 67.48 51.0494 69.72C51.0494 71.96 51.5027 73.96 52.4094 75.72C53.3694 77.48 54.676 78.8667 56.3294 79.88C58.036 80.84 59.956 81.32 62.0894 81.32ZM110.128 89.8C107.194 89.8 104.581 89.1867 102.288 87.96C99.9942 86.68 98.1808 84.9467 96.8475 82.76C95.5675 80.5733 94.9275 78.0933 94.9275 75.32V64.28C94.9275 61.5067 95.5942 59.0267 96.9275 56.84C98.2608 54.6533 100.074 52.9467 102.368 51.72C104.661 50.44 107.248 49.8 110.128 49.8C113.594 49.8 116.714 50.7067 119.488 52.52C122.314 54.28 124.528 56.68 126.128 59.72C127.781 62.7067 128.608 66.0933 128.608 69.88C128.608 73.6133 127.781 77 126.128 80.04C124.528 83.0267 122.314 85.4 119.488 87.16C116.714 88.92 113.594 89.8 110.128 89.8ZM108.688 81.48C110.821 81.48 112.688 81 114.288 80.04C115.941 79.0267 117.221 77.64 118.128 75.88C119.088 74.12 119.568 72.0933 119.568 69.8C119.568 67.5067 119.088 65.48 118.128 63.72C117.221 61.96 115.941 60.6 114.288 59.64C112.688 58.6267 110.821 58.12 108.688 58.12C106.554 58.12 104.661 58.6267 103.008 59.64C101.354 60.6 100.074 61.96 99.1675 63.72C98.2608 65.48 97.8075 67.5067 97.8075 69.8C97.8075 72.0933 98.2608 74.12 99.1675 75.88C100.074 77.64 101.354 79.0267 103.008 80.04C104.661 81 106.554 81.48 108.688 81.48ZM89.5675 105V50.6H98.3675V60.92L96.8475 70.28L98.3675 79.56V105H89.5675Z" fill="#2D3142"/>
</svg>
